<svg xmlns="http://www.w3.org/2000/svg" id="svg-tree" width="669.9" height="825.1540161132813" style="background-color: white;"><g id="chart-container" width="750.1400146484375" height="609" transform="rotate(270) translate(-730.7769973754883 30.450000000000003)"><g id="link-container"><path fill="none" stroke="#cccccc" d="M 173.0909619140625 0 L 41.58 0 L 41.58 47.028724927683854" stroke-width="3"/><path fill="none" stroke="#cccccc" d="M 173.0909619140625 0 L 304.601923828125 0 L 304.601923828125 52.414911282572" stroke-width="3"/><path fill="none" stroke="#CCCCCC" d="M 41.58 47.028724927683854 L 17.325 47.028724927683854 L 17.325 52.5817060976404" stroke-width="3"/><path fill="none" stroke="#cccccc" d="M 41.58 47.028724927683854 L 65.835 47.028724927683854 L 65.835 55.847359709309366" stroke-width="3"/><path fill="none" stroke="#cccccc" d="M 304.601923828125 52.414911282572 L 204.001875 52.414911282572 L 204.001875 66.7217621739684" stroke-width="3"/><path fill="none" stroke="#cccccc" d="M 304.601923828125 52.414911282572 L 405.20197265625 52.414911282572 L 405.20197265625 76.65634876186982" stroke-width="3"/><path fill="none" stroke="#CCCCCC" d="M 17.325 52.5817060976404 L 6.93 52.5817060976404 L 6.93 106.31926930476057" stroke-width="3"/><path fill="none" stroke="#CCCCCC" d="M 17.325 52.5817060976404 L 27.72 52.5817060976404 L 27.72 92.13945756988218" stroke-width="3"/><path fill="none" stroke="#CCCCCC" d="M 65.835 55.847359709309366 L 48.510000000000005 55.847359709309366 L 48.510000000000005 149.7286736351588" stroke-width="3"/><path fill="none" stroke="#cccccc" d="M 65.835 55.847359709309366 L 83.16 55.847359709309366 L 83.16 64.01149373848178" stroke-width="3"/><path fill="none" stroke="#E25822" d="M 204.001875 66.7217621739684 L 180.18 66.7217621739684 L 180.18 104.83475461129943" stroke-width="3"/><path fill="none" stroke="#CCCCCC" d="M 204.001875 66.7217621739684 L 227.82375 66.7217621739684 L 227.82375 153.8942877019327" stroke-width="3"/><path fill="none" stroke="#cccccc" d="M 405.20197265625 76.65634876186982 L 330.90749999999997 76.65634876186982 L 330.90749999999997 86.14505282003152" stroke-width="3"/><path fill="none" stroke="#cccccc" d="M 405.20197265625 76.65634876186982 L 479.4964453125 76.65634876186982 L 479.4964453125 85.21530056178939" stroke-width="3"/><path fill="none" stroke="#CCCCCC" d="M 27.72 92.13945756988218 L 20.79 92.13945756988218 L 20.79 110.68779716247563" stroke-width="3"/><path fill="none" stroke="#CCCCCC" d="M 27.72 92.13945756988218 L 34.65 92.13945756988218 L 34.65 122.39221356814271" stroke-width="3"/><path fill="none" stroke="#CCCCCC" d="M 83.16 64.01149373848178 L 62.37 64.01149373848178 L 62.37 116.72527080189796" stroke-width="3"/><path fill="none" stroke="#E25822" d="M 83.16 64.01149373848178 L 103.95 64.01149373848178 L 103.95 83.49519025798728" stroke-width="3"/><path fill="none" stroke="#E25822" d="M 180.18 104.83475461129943 L 166.32 104.83475461129943 L 166.32 108.37379150586744" stroke-width="3"/><path fill="none" stroke="#E25822" d="M 180.18 104.83475461129943 L 194.04000000000002 104.83475461129943 L 194.04000000000002 109.127308071489" stroke-width="3"/><path fill="none" stroke="#CCCCCC" d="M 227.82375 153.8942877019327 L 214.83 153.8942877019327 L 214.83 173.04419506509677" stroke-width="3"/><path fill="none" stroke="#CCCCCC" d="M 227.82375 153.8942877019327 L 240.8175 153.8942877019327 L 240.8175 160.90884191280975" stroke-width="3"/><path fill="none" stroke="#0067A5" d="M 330.90749999999997 86.14505282003152 L 304.92 86.14505282003152 L 304.92 115.96936303552542" stroke-width="3"/><path fill="none" stroke="#CCCCCC" d="M 330.90749999999997 86.14505282003152 L 356.895 86.14505282003152 L 356.895 118.8738268884667" stroke-width="3"/><path fill="none" stroke="#CCCCCC" d="M 479.4964453125 85.21530056178939 L 421.86375 85.21530056178939 L 421.86375 118.83272598488733" stroke-width="3"/><path fill="none" stroke="#cccccc" d="M 479.4964453125 85.21530056178939 L 537.129140625 85.21530056178939 L 537.129140625 88.30409573987446" stroke-width="3"/><path fill="none" stroke="#E25822" d="M 103.95 83.49519025798728 L 83.16 83.49519025798728 L 83.16 122.54727606801029" stroke-width="3"/><path fill="none" stroke="#E25822" d="M 103.95 83.49519025798728 L 124.74 83.49519025798728 L 124.74 108.77971885085212" stroke-width="3"/><path fill="none" stroke="#E25822" d="M 166.32 108.37379150586744 L 159.39000000000001 108.37379150586744 L 159.39000000000001 108.37379150586744" stroke-width="3"/><path fill="none" stroke="#E25822" d="M 166.32 108.37379150586744 L 173.25 108.37379150586744 L 173.25 108.37379150586744" stroke-width="3"/><path fill="none" stroke="#E25822" d="M 194.04000000000002 109.127308071489 L 187.11 109.127308071489 L 187.11 110.9270294554942" stroke-width="3"/><path fill="none" stroke="#E25822" d="M 194.04000000000002 109.127308071489 L 200.97 109.127308071489 L 200.97 111.50493306945852" stroke-width="3"/><path fill="none" stroke="#CCCCCC" d="M 240.8175 160.90884191280975 L 228.69 160.90884191280975 L 228.69 178.12887503063396" stroke-width="3"/><path fill="none" stroke="#CCCCCC" d="M 240.8175 160.90884191280975 L 252.945 160.90884191280975 L 252.945 170.4118690131279" stroke-width="3"/><path fill="none" stroke="#0067A5" d="M 304.92 115.96936303552542 L 291.06 115.96936303552542 L 291.06 152.29384342619105" stroke-width="3"/><path fill="none" stroke="#0067A5" d="M 304.92 115.96936303552542 L 318.78000000000003 115.96936303552542 L 318.78000000000003 165.68277413764847" stroke-width="3"/><path fill="none" stroke="#CCCCCC" d="M 356.895 118.8738268884667 L 339.57 118.8738268884667 L 339.57 145.82045111244224" stroke-width="3"/><path fill="none" stroke="#CCCCCC" d="M 356.895 118.8738268884667 L 374.22 118.8738268884667 L 374.22 127.4863344112321" stroke-width="3"/><path fill="none" stroke="#CCCCCC" d="M 421.86375 118.83272598488733 L 408.87 118.83272598488733 L 408.87 138.22238861893098" stroke-width="3"/><path fill="none" stroke="#CCCCCC" d="M 421.86375 118.83272598488733 L 434.85749999999996 118.83272598488733 L 434.85749999999996 129.10296995202017" stroke-width="3"/><path fill="none" stroke="#CCCCCC" d="M 537.129140625 88.30409573987446 L 500.6925 88.30409573987446 L 500.6925 142.78085247045973" stroke-width="3"/><path fill="none" stroke="#cccccc" d="M 537.129140625 88.30409573987446 L 573.56578125 88.30409573987446 L 573.56578125 121.36852718754105" stroke-width="3"/><path fill="none" stroke="#E25822" d="M 83.16 122.54727606801029 L 76.23 122.54727606801029 L 76.23 130.6391721454372" stroke-width="3"/><path fill="none" stroke="#E25822" d="M 83.16 122.54727606801029 L 90.09 122.54727606801029 L 90.09 132.80444247491334" stroke-width="3"/><path fill="none" stroke="#E25822" d="M 124.74 108.77971885085212 L 110.88 108.77971885085212 L 110.88 119.64841688373893" stroke-width="3"/><path fill="none" stroke="#E25822" d="M 124.74 108.77971885085212 L 138.6 108.77971885085212 L 138.6 123.73857953084834" stroke-width="3"/><path fill="none" stroke="#CCCCCC" d="M 252.945 170.4118690131279 L 242.54999999999998 170.4118690131279 L 242.54999999999998 183.19860921305138" stroke-width="3"/><path fill="none" stroke="#CCCCCC" d="M 252.945 170.4118690131279 L 263.34 170.4118690131279 L 263.34 174.8719397924515" stroke-width="3"/><path fill="none" stroke="#0067A5" d="M 291.06 152.29384342619105 L 284.13 152.29384342619105 L 284.13 160.6915053166098" stroke-width="3"/><path fill="none" stroke="#0067A5" d="M 291.06 152.29384342619105 L 297.99 152.29384342619105 L 297.99 165.58562654736997" stroke-width="3"/><path fill="none" stroke="#0067A5" d="M 318.78000000000003 165.68277413764847 L 311.85 165.68277413764847 L 311.85 168.25469431617495" stroke-width="3"/><path fill="none" stroke="#0067A5" d="M 318.78000000000003 165.68277413764847 L 325.71 165.68277413764847 L 325.71 170.05690666403345" stroke-width="3"/><path fill="none" stroke="#CCCCCC" d="M 374.22 127.4863344112321 L 360.36 127.4863344112321 L 360.36 129.98663937897635" stroke-width="3"/><path fill="none" stroke="#CCCCCC" d="M 374.22 127.4863344112321 L 388.08000000000004 127.4863344112321 L 388.08000000000004 130.09250534274136" stroke-width="3"/><path fill="none" stroke="#CCCCCC" d="M 434.85749999999996 129.10296995202017 L 422.73 129.10296995202017 L 422.73 169.1638961226274" stroke-width="3"/><path fill="none" stroke="#CCCCCC" d="M 434.85749999999996 129.10296995202017 L 446.985 129.10296995202017 L 446.985 133.93668530933795" stroke-width="3"/><path fill="none" stroke="#CCCCCC" d="M 500.6925 142.78085247045973 L 485.09999999999997 142.78085247045973 L 485.09999999999997 159.44415516707267" stroke-width="3"/><path fill="none" stroke="#CCCCCC" d="M 500.6925 142.78085247045973 L 516.285 142.78085247045973 L 516.285 151.72652640860326" stroke-width="3"/><path fill="none" stroke="#CCCCCC" d="M 573.56578125 121.36852718754105 L 554.4 121.36852718754105 L 554.4 147.53547972543544" stroke-width="3"/><path fill="none" stroke="#cccccc" d="M 573.56578125 121.36852718754105 L 592.7315625 121.36852718754105 L 592.7315625 129.10732913876342" stroke-width="3"/><path fill="none" stroke="#E25822" d="M 110.88 119.64841688373893 L 103.95 119.64841688373893 L 103.95 130.1042376579422" stroke-width="3"/><path fill="none" stroke="#E25822" d="M 110.88 119.64841688373893 L 117.81 119.64841688373893 L 117.81 130.6379266635105" stroke-width="3"/><path fill="none" stroke="#E25822" d="M 138.6 123.73857953084834 L 131.67 123.73857953084834 L 131.67 133.4371472936501" stroke-width="3"/><path fill="none" stroke="#E25822" d="M 138.6 123.73857953084834 L 145.53 123.73857953084834 L 145.53 133.47513449241285" stroke-width="3"/><path fill="none" stroke="#CCCCCC" d="M 263.34 174.8719397924515 L 256.41 174.8719397924515 L 256.41 188.37732306405044" stroke-width="3"/><path fill="none" stroke="#CCCCCC" d="M 263.34 174.8719397924515 L 270.27 174.8719397924515 L 270.27 193.83627034854513" stroke-width="3"/><path fill="none" stroke="#CCCCCC" d="M 360.36 129.98663937897635 L 353.43 129.98663937897635 L 353.43 145.32412656467332" stroke-width="3"/><path fill="none" stroke="#CCCCCC" d="M 360.36 129.98663937897635 L 367.29 129.98663937897635 L 367.29 145.40321466701542" stroke-width="3"/><path fill="none" stroke="#CCCCCC" d="M 388.08000000000004 130.09250534274136 L 381.15000000000003 130.09250534274136 L 381.15000000000003 141.59141723051167" stroke-width="3"/><path fill="none" stroke="#CCCCCC" d="M 388.08000000000004 130.09250534274136 L 395.01 130.09250534274136 L 395.01 147.92407008654936" stroke-width="3"/><path fill="none" stroke="#CCCCCC" d="M 446.985 133.93668530933795 L 436.59 133.93668530933795 L 436.59 164.35820410865918" stroke-width="3"/><path fill="none" stroke="#CCCCCC" d="M 446.985 133.93668530933795 L 457.38 133.93668530933795 L 457.38 143.36498349405727" stroke-width="3"/><path fill="none" stroke="#CCCCCC" d="M 485.09999999999997 159.44415516707267 L 478.16999999999996 159.44415516707267 L 478.16999999999996 168.4595760931084" stroke-width="3"/><path fill="none" stroke="#CCCCCC" d="M 485.09999999999997 159.44415516707267 L 492.03 159.44415516707267 L 492.03 175.4454842196726" stroke-width="3"/><path fill="none" stroke="#CCCCCC" d="M 516.285 151.72652640860326 L 505.89 151.72652640860326 L 505.89 176.71898948966935" stroke-width="3"/><path fill="none" stroke="#CCCCCC" d="M 516.285 151.72652640860326 L 526.68 151.72652640860326 L 526.68 166.13799778183804" stroke-width="3"/><path fill="none" stroke="#CCCCCC" d="M 554.4 147.53547972543544 L 547.47 147.53547972543544 L 547.47 208.69113328766633" stroke-width="3"/><path fill="none" stroke="#CCCCCC" d="M 554.4 147.53547972543544 L 561.33 147.53547972543544 L 561.33 214.00000000000006" stroke-width="3"/><path fill="none" stroke="#CCCCCC" d="M 592.7315625 129.10732913876342 L 575.1899999999999 129.10732913876342 L 575.1899999999999 174.59793376858914" stroke-width="3"/><path fill="none" stroke="#cccccc" d="M 592.7315625 129.10732913876342 L 610.273125 129.10732913876342 L 610.273125 136.56216121071026" stroke-width="3"/><path fill="none" stroke="#CCCCCC" d="M 457.38 143.36498349405727 L 450.45 143.36498349405727 L 450.45 154.92928318297658" stroke-width="3"/><path fill="none" stroke="#CCCCCC" d="M 457.38 143.36498349405727 L 464.31 143.36498349405727 L 464.31 155.22197143573862" stroke-width="3"/><path fill="none" stroke="#CCCCCC" d="M 526.68 166.13799778183804 L 519.75 166.13799778183804 L 519.75 184.1962402362958" stroke-width="3"/><path fill="none" stroke="#CCCCCC" d="M 526.68 166.13799778183804 L 533.61 166.13799778183804 L 533.61 194.55179971540397" stroke-width="3"/><path fill="none" stroke="#CCCCCC" d="M 610.273125 136.56216121071026 L 589.05 136.56216121071026 L 589.05 155.31475983927385" stroke-width="3"/><path fill="none" stroke="#cccccc" d="M 610.273125 136.56216121071026 L 631.49625 136.56216121071026 L 631.49625 142.5790843983429" stroke-width="3"/><path fill="none" stroke="#0067A5" d="M 631.49625 142.5790843983429 L 609.84 142.5790843983429 L 609.84 167.88727714781405" stroke-width="3"/><path fill="none" stroke="#cccccc" d="M 631.49625 142.5790843983429 L 653.1525 142.5790843983429 L 653.1525 152.37542249238643" stroke-width="3"/><path fill="none" stroke="#0067A5" d="M 609.84 167.88727714781405 L 602.91 167.88727714781405 L 602.91 171.23077337989847" stroke-width="3"/><path fill="none" stroke="#0067A5" d="M 609.84 167.88727714781405 L 616.77 167.88727714781405 L 616.77 172.64564084856968" stroke-width="3"/><path fill="none" stroke="#cccccc" d="M 653.1525 152.37542249238643 L 637.5600000000001 152.37542249238643 L 637.5600000000001 166.77942097406134" stroke-width="3"/><path fill="none" stroke="#0067A5" d="M 653.1525 152.37542249238643 L 668.745 152.37542249238643 L 668.745 172.5671754871909" stroke-width="3"/><path fill="none" stroke="#CCCCCC" d="M 637.5600000000001 166.77942097406134 L 630.63 166.77942097406134 L 630.63 175.39753316549667" stroke-width="3"/><path fill="none" stroke="#0067A5" d="M 637.5600000000001 166.77942097406134 L 644.49 166.77942097406134 L 644.49 176.79620936912147" stroke-width="3"/><path fill="none" stroke="#0067A5" d="M 668.745 172.5671754871909 L 658.35 172.5671754871909 L 658.35 178.3412296991273" stroke-width="3"/><path fill="none" stroke="#0067A5" d="M 668.745 172.5671754871909 L 679.14 172.5671754871909 L 679.14 174.12029144971996" stroke-width="3"/><path fill="none" stroke="#0067A5" d="M 679.14 174.12029144971996 L 672.21 174.12029144971996 L 672.21 179.2616408429196" stroke-width="3"/><path fill="none" stroke="#0067A5" d="M 679.14 174.12029144971996 L 686.07 174.12029144971996 L 686.07 179.71063707747592" stroke-width="3"/></g><g id="link-extension-container"><path fill="none" stroke="#000" stroke-opacity="0.35" stroke-width="2" stroke-dasharray="1, 5" class="dotted-links" d="M 6.93 106.31926930476057 L 6.93 214"/><path fill="none" stroke="#000" stroke-opacity="0.35" stroke-width="2" stroke-dasharray="1, 5" class="dotted-links" d="M 48.510000000000005 149.7286736351588 L 48.510000000000005 214"/><path fill="none" stroke="#000" stroke-opacity="0.35" stroke-width="2" stroke-dasharray="1, 5" class="dotted-links" d="M 20.79 110.68779716247563 L 20.79 214"/><path fill="none" stroke="#000" stroke-opacity="0.35" stroke-width="2" stroke-dasharray="1, 5" class="dotted-links" d="M 34.65 122.39221356814271 L 34.65 214"/><path fill="none" stroke="#000" stroke-opacity="0.35" stroke-width="2" stroke-dasharray="1, 5" class="dotted-links" d="M 62.37 116.72527080189796 L 62.37 214"/><path fill="none" stroke="#000" stroke-opacity="0.35" stroke-width="2" stroke-dasharray="1, 5" class="dotted-links" d="M 214.83 173.04419506509677 L 214.83 214"/><path fill="none" stroke="#000" stroke-opacity="0.35" stroke-width="2" stroke-dasharray="1, 5" class="dotted-links" d="M 159.39000000000001 108.37379150586744 L 159.39000000000001 214"/><path fill="none" stroke="#000" stroke-opacity="0.35" stroke-width="2" stroke-dasharray="1, 5" class="dotted-links" d="M 173.25 108.37379150586744 L 173.25 214"/><path fill="none" stroke="#000" stroke-opacity="0.35" stroke-width="2" stroke-dasharray="1, 5" class="dotted-links" d="M 187.11 110.9270294554942 L 187.11 214"/><path fill="none" stroke="#000" stroke-opacity="0.35" stroke-width="2" stroke-dasharray="1, 5" class="dotted-links" d="M 200.97 111.50493306945852 L 200.97 214"/><path fill="none" stroke="#000" stroke-opacity="0.35" stroke-width="2" stroke-dasharray="1, 5" class="dotted-links" d="M 228.69 178.12887503063396 L 228.69 214"/><path fill="none" stroke="#000" stroke-opacity="0.35" stroke-width="2" stroke-dasharray="1, 5" class="dotted-links" d="M 339.57 145.82045111244224 L 339.57 214"/><path fill="none" stroke="#000" stroke-opacity="0.35" stroke-width="2" stroke-dasharray="1, 5" class="dotted-links" d="M 408.87 138.22238861893098 L 408.87 214"/><path fill="none" stroke="#000" stroke-opacity="0.35" stroke-width="2" stroke-dasharray="1, 5" class="dotted-links" d="M 76.23 130.6391721454372 L 76.23 214"/><path fill="none" stroke="#000" stroke-opacity="0.35" stroke-width="2" stroke-dasharray="1, 5" class="dotted-links" d="M 90.09 132.80444247491334 L 90.09 214"/><path fill="none" stroke="#000" stroke-opacity="0.35" stroke-width="2" stroke-dasharray="1, 5" class="dotted-links" d="M 242.54999999999998 183.19860921305138 L 242.54999999999998 214"/><path fill="none" stroke="#000" stroke-opacity="0.35" stroke-width="2" stroke-dasharray="1, 5" class="dotted-links" d="M 284.13 160.6915053166098 L 284.13 214"/><path fill="none" stroke="#000" stroke-opacity="0.35" stroke-width="2" stroke-dasharray="1, 5" class="dotted-links" d="M 297.99 165.58562654736997 L 297.99 214"/><path fill="none" stroke="#000" stroke-opacity="0.35" stroke-width="2" stroke-dasharray="1, 5" class="dotted-links" d="M 311.85 168.25469431617495 L 311.85 214"/><path fill="none" stroke="#000" stroke-opacity="0.35" stroke-width="2" stroke-dasharray="1, 5" class="dotted-links" d="M 325.71 170.05690666403345 L 325.71 214"/><path fill="none" stroke="#000" stroke-opacity="0.35" stroke-width="2" stroke-dasharray="1, 5" class="dotted-links" d="M 422.73 169.1638961226274 L 422.73 214"/><path fill="none" stroke="#000" stroke-opacity="0.35" stroke-width="2" stroke-dasharray="1, 5" class="dotted-links" d="M 103.95 130.1042376579422 L 103.95 214"/><path fill="none" stroke="#000" stroke-opacity="0.35" stroke-width="2" stroke-dasharray="1, 5" class="dotted-links" d="M 117.81 130.6379266635105 L 117.81 214"/><path fill="none" stroke="#000" stroke-opacity="0.35" stroke-width="2" stroke-dasharray="1, 5" class="dotted-links" d="M 131.67 133.4371472936501 L 131.67 214"/><path fill="none" stroke="#000" stroke-opacity="0.35" stroke-width="2" stroke-dasharray="1, 5" class="dotted-links" d="M 145.53 133.47513449241285 L 145.53 214"/><path fill="none" stroke="#000" stroke-opacity="0.35" stroke-width="2" stroke-dasharray="1, 5" class="dotted-links" d="M 256.41 188.37732306405044 L 256.41 214"/><path fill="none" stroke="#000" stroke-opacity="0.35" stroke-width="2" stroke-dasharray="1, 5" class="dotted-links" d="M 270.27 193.83627034854513 L 270.27 214"/><path fill="none" stroke="#000" stroke-opacity="0.35" stroke-width="2" stroke-dasharray="1, 5" class="dotted-links" d="M 353.43 145.32412656467332 L 353.43 214"/><path fill="none" stroke="#000" stroke-opacity="0.35" stroke-width="2" stroke-dasharray="1, 5" class="dotted-links" d="M 367.29 145.40321466701542 L 367.29 214"/><path fill="none" stroke="#000" stroke-opacity="0.35" stroke-width="2" stroke-dasharray="1, 5" class="dotted-links" d="M 381.15000000000003 141.59141723051167 L 381.15000000000003 214"/><path fill="none" stroke="#000" stroke-opacity="0.35" stroke-width="2" stroke-dasharray="1, 5" class="dotted-links" d="M 395.01 147.92407008654936 L 395.01 214"/><path fill="none" stroke="#000" stroke-opacity="0.35" stroke-width="2" stroke-dasharray="1, 5" class="dotted-links" d="M 436.59 164.35820410865918 L 436.59 214"/><path fill="none" stroke="#000" stroke-opacity="0.35" stroke-width="2" stroke-dasharray="1, 5" class="dotted-links" d="M 478.16999999999996 168.4595760931084 L 478.16999999999996 214"/><path fill="none" stroke="#000" stroke-opacity="0.35" stroke-width="2" stroke-dasharray="1, 5" class="dotted-links" d="M 492.03 175.4454842196726 L 492.03 214"/><path fill="none" stroke="#000" stroke-opacity="0.35" stroke-width="2" stroke-dasharray="1, 5" class="dotted-links" d="M 505.89 176.71898948966935 L 505.89 214"/><path fill="none" stroke="#000" stroke-opacity="0.35" stroke-width="2" stroke-dasharray="1, 5" class="dotted-links" d="M 547.47 208.69113328766633 L 547.47 214"/><path fill="none" stroke="#000" stroke-opacity="0.35" stroke-width="2" stroke-dasharray="1, 5" class="dotted-links" d="M 561.33 214.00000000000006 L 561.33 214"/><path fill="none" stroke="#000" stroke-opacity="0.35" stroke-width="2" stroke-dasharray="1, 5" class="dotted-links" d="M 575.1899999999999 174.59793376858914 L 575.1899999999999 214"/><path fill="none" stroke="#000" stroke-opacity="0.35" stroke-width="2" stroke-dasharray="1, 5" class="dotted-links" d="M 450.45 154.92928318297658 L 450.45 214"/><path fill="none" stroke="#000" stroke-opacity="0.35" stroke-width="2" stroke-dasharray="1, 5" class="dotted-links" d="M 464.31 155.22197143573862 L 464.31 214"/><path fill="none" stroke="#000" stroke-opacity="0.35" stroke-width="2" stroke-dasharray="1, 5" class="dotted-links" d="M 519.75 184.1962402362958 L 519.75 214"/><path fill="none" stroke="#000" stroke-opacity="0.35" stroke-width="2" stroke-dasharray="1, 5" class="dotted-links" d="M 533.61 194.55179971540397 L 533.61 214"/><path fill="none" stroke="#000" stroke-opacity="0.35" stroke-width="2" stroke-dasharray="1, 5" class="dotted-links" d="M 589.05 155.31475983927385 L 589.05 214"/><path fill="none" stroke="#000" stroke-opacity="0.35" stroke-width="2" stroke-dasharray="1, 5" class="dotted-links" d="M 602.91 171.23077337989847 L 602.91 214"/><path fill="none" stroke="#000" stroke-opacity="0.35" stroke-width="2" stroke-dasharray="1, 5" class="dotted-links" d="M 616.77 172.64564084856968 L 616.77 214"/><path fill="none" stroke="#000" stroke-opacity="0.35" stroke-width="2" stroke-dasharray="1, 5" class="dotted-links" d="M 630.63 175.39753316549667 L 630.63 214"/><path fill="none" stroke="#000" stroke-opacity="0.35" stroke-width="2" stroke-dasharray="1, 5" class="dotted-links" d="M 644.49 176.79620936912147 L 644.49 214"/><path fill="none" stroke="#000" stroke-opacity="0.35" stroke-width="2" stroke-dasharray="1, 5" class="dotted-links" d="M 658.35 178.3412296991273 L 658.35 214"/><path fill="none" stroke="#000" stroke-opacity="0.35" stroke-width="2" stroke-dasharray="1, 5" class="dotted-links" d="M 672.21 179.2616408429196 L 672.21 214"/><path fill="none" stroke="#000" stroke-opacity="0.35" stroke-width="2" stroke-dasharray="1, 5" class="dotted-links" d="M 686.07 179.71063707747592 L 686.07 214"/></g><g id="inner-dot-container"/><g id="inner-label-container"/><g id="leaf-dot-container"/><g id="bars-container"><g id="bars-container-1"><rect transform="rotate(0) translate(6.93 214) rotate(90) translate(125, -4)" fill="#35978F" width="0" height="8"/><rect transform="rotate(0) translate(48.510000000000005 214) rotate(90) translate(125, -4)" fill="#35978F" width="0" height="8"/><rect transform="rotate(0) translate(20.79 214) rotate(90) translate(125, -4)" fill="#35978F" width="0" height="8"/><rect transform="rotate(0) translate(34.65 214) rotate(90) translate(125, -4)" fill="#35978F" width="0" height="8"/><rect transform="rotate(0) translate(62.37 214) rotate(90) translate(125, -4)" fill="#35978F" width="0" height="8"/><rect transform="rotate(0) translate(214.83 214) rotate(90) translate(125, -4)" fill="#35978F" width="0" height="8"/><rect transform="rotate(0) translate(159.39000000000001 214) rotate(90) translate(125, -4) rotate(180) translate(0, -8)" fill="#BF812D" width="21.16182572614108" height="8"/><rect transform="rotate(0) translate(173.25 214) rotate(90) translate(125, -4) rotate(180) translate(0, -8)" fill="#BF812D" width="16.59751037344398" height="8"/><rect transform="rotate(0) translate(187.11 214) rotate(90) translate(125, -4)" fill="#35978F" width="8.71369294605809" height="8"/><rect transform="rotate(0) translate(200.97 214) rotate(90) translate(125, -4) rotate(180) translate(0, -8)" fill="#BF812D" width="21.16182572614108" height="8"/><rect transform="rotate(0) translate(228.69 214) rotate(90) translate(125, -4)" fill="#35978F" width="0" height="8"/><rect transform="rotate(0) translate(339.57 214) rotate(90) translate(125, -4)" fill="#35978F" width="0" height="8"/><rect transform="rotate(0) translate(408.87 214) rotate(90) translate(125, -4)" fill="#35978F" width="0" height="8"/><rect transform="rotate(0) translate(76.23 214) rotate(90) translate(125, -4) rotate(180) translate(0, -8)" fill="#BF812D" width="9.54356846473029" height="8"/><rect transform="rotate(0) translate(90.09 214) rotate(90) translate(125, -4) rotate(180) translate(0, -8)" fill="#BF812D" width="0.2074688796680498" height="8"/><rect transform="rotate(0) translate(242.54999999999998 214) rotate(90) translate(125, -4)" fill="#35978F" width="0" height="8"/><rect transform="rotate(0) translate(284.13 214) rotate(90) translate(125, -4)" fill="#35978F" width="33.19502074688796" height="8"/><rect transform="rotate(0) translate(297.99 214) rotate(90) translate(125, -4) rotate(180) translate(0, -8)" fill="#BF812D" width="2.2821576763485476" height="8"/><rect transform="rotate(0) translate(311.85 214) rotate(90) translate(125, -4)" fill="#35978F" width="23.236514522821576" height="8"/><rect transform="rotate(0) translate(325.71 214) rotate(90) translate(125, -4)" fill="#35978F" width="10.995850622406639" height="8"/><rect transform="rotate(0) translate(422.73 214) rotate(90) translate(125, -4)" fill="#35978F" width="0" height="8"/><rect transform="rotate(0) translate(103.95 214) rotate(90) translate(125, -4) rotate(180) translate(0, -8)" fill="#BF812D" width="21.16182572614108" height="8"/><rect transform="rotate(0) translate(117.81 214) rotate(90) translate(125, -4) rotate(180) translate(0, -8)" fill="#BF812D" width="27.178423236514522" height="8"/><rect transform="rotate(0) translate(131.67 214) rotate(90) translate(125, -4) rotate(180) translate(0, -8)" fill="#BF812D" width="50" height="8"/><rect transform="rotate(0) translate(145.53 214) rotate(90) translate(125, -4) rotate(180) translate(0, -8)" fill="#BF812D" width="21.16182572614108" height="8"/><rect transform="rotate(0) translate(256.41 214) rotate(90) translate(125, -4)" fill="#35978F" width="0" height="8"/><rect transform="rotate(0) translate(270.27 214) rotate(90) translate(125, -4)" fill="#35978F" width="0" height="8"/><rect transform="rotate(0) translate(353.43 214) rotate(90) translate(125, -4)" fill="#35978F" width="0" height="8"/><rect transform="rotate(0) translate(367.29 214) rotate(90) translate(125, -4)" fill="#35978F" width="0" height="8"/><rect transform="rotate(0) translate(381.15000000000003 214) rotate(90) translate(125, -4)" fill="#35978F" width="0" height="8"/><rect transform="rotate(0) translate(395.01 214) rotate(90) translate(125, -4)" fill="#35978F" width="0" height="8"/><rect transform="rotate(0) translate(436.59 214) rotate(90) translate(125, -4)" fill="#35978F" width="0" height="8"/><rect transform="rotate(0) translate(478.16999999999996 214) rotate(90) translate(125, -4)" fill="#35978F" width="0" height="8"/><rect transform="rotate(0) translate(492.03 214) rotate(90) translate(125, -4)" fill="#35978F" width="0" height="8"/><rect transform="rotate(0) translate(505.89 214) rotate(90) translate(125, -4)" fill="#35978F" width="0" height="8"/><rect transform="rotate(0) translate(547.47 214) rotate(90) translate(125, -4)" fill="#35978F" width="0" height="8"/><rect transform="rotate(0) translate(561.33 214) rotate(90) translate(125, -4)" fill="#35978F" width="0" height="8"/><rect transform="rotate(0) translate(575.1899999999999 214) rotate(90) translate(125, -4)" fill="#35978F" width="0" height="8"/><rect transform="rotate(0) translate(450.45 214) rotate(90) translate(125, -4)" fill="#35978F" width="0" height="8"/><rect transform="rotate(0) translate(464.31 214) rotate(90) translate(125, -4)" fill="#35978F" width="0" height="8"/><rect transform="rotate(0) translate(519.75 214) rotate(90) translate(125, -4)" fill="#35978F" width="0" height="8"/><rect transform="rotate(0) translate(533.61 214) rotate(90) translate(125, -4)" fill="#35978F" width="0" height="8"/><rect transform="rotate(0) translate(589.05 214) rotate(90) translate(125, -4)" fill="#35978F" width="0" height="8"/><rect transform="rotate(0) translate(602.91 214) rotate(90) translate(125, -4)" fill="#35978F" width="35.68464730290456" height="8"/><rect transform="rotate(0) translate(616.77 214) rotate(90) translate(125, -4)" fill="#35978F" width="21.991701244813278" height="8"/><rect transform="rotate(0) translate(630.63 214) rotate(90) translate(125, -4)" fill="#35978F" width="0" height="8"/><rect transform="rotate(0) translate(644.49 214) rotate(90) translate(125, -4)" fill="#35978F" width="3.319502074688797" height="8"/><rect transform="rotate(0) translate(658.35 214) rotate(90) translate(125, -4)" fill="#35978F" width="1.4522821576763485" height="8"/><rect transform="rotate(0) translate(672.21 214) rotate(90) translate(125, -4)" fill="#35978F" width="42.32365145228216" height="8"/><rect transform="rotate(0) translate(686.07 214) rotate(90) translate(125, -4)" fill="#35978F" width="9.95850622406639" height="8"/></g><g id="bars-container-2"><rect transform="rotate(0) translate(6.93 214) rotate(90) translate(235, -4)" fill="#35978F" width="0" height="8"/><rect transform="rotate(0) translate(48.510000000000005 214) rotate(90) translate(235, -4)" fill="#35978F" width="0" height="8"/><rect transform="rotate(0) translate(20.79 214) rotate(90) translate(235, -4)" fill="#35978F" width="0" height="8"/><rect transform="rotate(0) translate(34.65 214) rotate(90) translate(235, -4)" fill="#35978F" width="0" height="8"/><rect transform="rotate(0) translate(62.37 214) rotate(90) translate(235, -4)" fill="#35978F" width="0" height="8"/><rect transform="rotate(0) translate(214.83 214) rotate(90) translate(235, -4)" fill="#35978F" width="0" height="8"/><rect transform="rotate(0) translate(159.39000000000001 214) rotate(90) translate(235, -4) rotate(180) translate(0, -8)" fill="#BF812D" width="3.7914691943127963" height="8"/><rect transform="rotate(0) translate(173.25 214) rotate(90) translate(235, -4)" fill="#35978F" width="27.251184834123222" height="8"/><rect transform="rotate(0) translate(187.11 214) rotate(90) translate(235, -4)" fill="#35978F" width="31.516587677725123" height="8"/><rect transform="rotate(0) translate(200.97 214) rotate(90) translate(235, -4)" fill="#35978F" width="10.900473933649291" height="8"/><rect transform="rotate(0) translate(228.69 214) rotate(90) translate(235, -4)" fill="#35978F" width="0" height="8"/><rect transform="rotate(0) translate(339.57 214) rotate(90) translate(235, -4)" fill="#35978F" width="0" height="8"/><rect transform="rotate(0) translate(408.87 214) rotate(90) translate(235, -4)" fill="#35978F" width="0" height="8"/><rect transform="rotate(0) translate(76.23 214) rotate(90) translate(235, -4)" fill="#35978F" width="18.483412322274884" height="8"/><rect transform="rotate(0) translate(90.09 214) rotate(90) translate(235, -4)" fill="#35978F" width="40.75829383886256" height="8"/><rect transform="rotate(0) translate(242.54999999999998 214) rotate(90) translate(235, -4)" fill="#35978F" width="0" height="8"/><rect transform="rotate(0) translate(284.13 214) rotate(90) translate(235, -4) rotate(180) translate(0, -8)" fill="#BF812D" width="23.933649289099527" height="8"/><rect transform="rotate(0) translate(297.99 214) rotate(90) translate(235, -4) rotate(180) translate(0, -8)" fill="#BF812D" width="50" height="8"/><rect transform="rotate(0) translate(311.85 214) rotate(90) translate(235, -4) rotate(180) translate(0, -8)" fill="#BF812D" width="7.345971563981044" height="8"/><rect transform="rotate(0) translate(325.71 214) rotate(90) translate(235, -4) rotate(180) translate(0, -8)" fill="#BF812D" width="50" height="8"/><rect transform="rotate(0) translate(422.73 214) rotate(90) translate(235, -4)" fill="#35978F" width="0" height="8"/><rect transform="rotate(0) translate(103.95 214) rotate(90) translate(235, -4)" fill="#35978F" width="45.497630331753555" height="8"/><rect transform="rotate(0) translate(117.81 214) rotate(90) translate(235, -4)" fill="#35978F" width="32.93838862559242" height="8"/><rect transform="rotate(0) translate(131.67 214) rotate(90) translate(235, -4) rotate(180) translate(0, -8)" fill="#BF812D" width="33.41232227488152" height="8"/><rect transform="rotate(0) translate(145.53 214) rotate(90) translate(235, -4)" fill="#35978F" width="36.25592417061612" height="8"/><rect transform="rotate(0) translate(256.41 214) rotate(90) translate(235, -4)" fill="#35978F" width="0" height="8"/><rect transform="rotate(0) translate(270.27 214) rotate(90) translate(235, -4)" fill="#35978F" width="0" height="8"/><rect transform="rotate(0) translate(353.43 214) rotate(90) translate(235, -4)" fill="#35978F" width="0" height="8"/><rect transform="rotate(0) translate(367.29 214) rotate(90) translate(235, -4)" fill="#35978F" width="0" height="8"/><rect transform="rotate(0) translate(381.15000000000003 214) rotate(90) translate(235, -4)" fill="#35978F" width="0" height="8"/><rect transform="rotate(0) translate(395.01 214) rotate(90) translate(235, -4)" fill="#35978F" width="0" height="8"/><rect transform="rotate(0) translate(436.59 214) rotate(90) translate(235, -4)" fill="#35978F" width="0" height="8"/><rect transform="rotate(0) translate(478.16999999999996 214) rotate(90) translate(235, -4)" fill="#35978F" width="0" height="8"/><rect transform="rotate(0) translate(492.03 214) rotate(90) translate(235, -4)" fill="#35978F" width="0" height="8"/><rect transform="rotate(0) translate(505.89 214) rotate(90) translate(235, -4)" fill="#35978F" width="0" height="8"/><rect transform="rotate(0) translate(547.47 214) rotate(90) translate(235, -4)" fill="#35978F" width="0" height="8"/><rect transform="rotate(0) translate(561.33 214) rotate(90) translate(235, -4)" fill="#35978F" width="0" height="8"/><rect transform="rotate(0) translate(575.1899999999999 214) rotate(90) translate(235, -4)" fill="#35978F" width="0" height="8"/><rect transform="rotate(0) translate(450.45 214) rotate(90) translate(235, -4)" fill="#35978F" width="0" height="8"/><rect transform="rotate(0) translate(464.31 214) rotate(90) translate(235, -4)" fill="#35978F" width="0" height="8"/><rect transform="rotate(0) translate(519.75 214) rotate(90) translate(235, -4)" fill="#35978F" width="0" height="8"/><rect transform="rotate(0) translate(533.61 214) rotate(90) translate(235, -4)" fill="#35978F" width="0" height="8"/><rect transform="rotate(0) translate(589.05 214) rotate(90) translate(235, -4)" fill="#35978F" width="0" height="8"/><rect transform="rotate(0) translate(602.91 214) rotate(90) translate(235, -4) rotate(180) translate(0, -8)" fill="#BF812D" width="7.345971563981044" height="8"/><rect transform="rotate(0) translate(616.77 214) rotate(90) translate(235, -4) rotate(180) translate(0, -8)" fill="#BF812D" width="17.061611374407583" height="8"/><rect transform="rotate(0) translate(630.63 214) rotate(90) translate(235, -4)" fill="#35978F" width="0" height="8"/><rect transform="rotate(0) translate(644.49 214) rotate(90) translate(235, -4) rotate(180) translate(0, -8)" fill="#BF812D" width="17.061611374407583" height="8"/><rect transform="rotate(0) translate(658.35 214) rotate(90) translate(235, -4) rotate(180) translate(0, -8)" fill="#BF812D" width="33.41232227488152" height="8"/><rect transform="rotate(0) translate(672.21 214) rotate(90) translate(235, -4)" fill="#35978F" width="6.872037914691943" height="8"/><rect transform="rotate(0) translate(686.07 214) rotate(90) translate(235, -4) rotate(180) translate(0, -8)" fill="#BF812D" width="7.345971563981044" height="8"/></g><g id="bars-container-3"><rect transform="rotate(0) translate(6.93 214) rotate(90) translate(295, -4)" fill="#e2e2ef" width="0" height="8"/><rect transform="rotate(0) translate(48.510000000000005 214) rotate(90) translate(295, -4)" fill="#e2e2ef" width="0" height="8"/><rect transform="rotate(0) translate(20.79 214) rotate(90) translate(295, -4)" fill="#e2e2ef" width="0" height="8"/><rect transform="rotate(0) translate(34.65 214) rotate(90) translate(295, -4)" fill="#e2e2ef" width="0" height="8"/><rect transform="rotate(0) translate(62.37 214) rotate(90) translate(295, -4)" fill="#e2e2ef" width="0" height="8"/><rect transform="rotate(0) translate(214.83 214) rotate(90) translate(295, -4)" fill="#e2e2ef" width="0" height="8"/><rect transform="rotate(0) translate(159.39000000000001 214) rotate(90) translate(295, -4)" fill="#7d76b6" width="55.00000000000001" height="8"/><rect transform="rotate(0) translate(173.25 214) rotate(90) translate(295, -4)" fill="#7261ab" width="65" height="8"/><rect transform="rotate(0) translate(187.11 214) rotate(90) translate(295, -4)" fill="#674ca1" width="75" height="8"/><rect transform="rotate(0) translate(200.97 214) rotate(90) translate(295, -4)" fill="#6d57a6" width="70" height="8"/><rect transform="rotate(0) translate(228.69 214) rotate(90) translate(295, -4)" fill="#e2e2ef" width="0" height="8"/><rect transform="rotate(0) translate(339.57 214) rotate(90) translate(295, -4)" fill="#e2e2ef" width="0" height="8"/><rect transform="rotate(0) translate(408.87 214) rotate(90) translate(295, -4)" fill="#e2e2ef" width="0" height="8"/><rect transform="rotate(0) translate(76.23 214) rotate(90) translate(295, -4)" fill="#62419b" width="80" height="8"/><rect transform="rotate(0) translate(90.09 214) rotate(90) translate(295, -4)" fill="#5c3696" width="85" height="8"/><rect transform="rotate(0) translate(242.54999999999998 214) rotate(90) translate(295, -4)" fill="#e2e2ef" width="0" height="8"/><rect transform="rotate(0) translate(284.13 214) rotate(90) translate(295, -4)" fill="#b1b0d5" width="25" height="8"/><rect transform="rotate(0) translate(297.99 214) rotate(90) translate(295, -4)" fill="#a09cc9" width="35" height="8"/><rect transform="rotate(0) translate(311.85 214) rotate(90) translate(295, -4)" fill="#cecee5" width="10" height="8"/><rect transform="rotate(0) translate(325.71 214) rotate(90) translate(295, -4)" fill="#8380bc" width="50" height="8"/><rect transform="rotate(0) translate(422.73 214) rotate(90) translate(295, -4)" fill="#e2e2ef" width="0" height="8"/><rect transform="rotate(0) translate(103.95 214) rotate(90) translate(295, -4)" fill="#786bb1" width="60" height="8"/><rect transform="rotate(0) translate(117.81 214) rotate(90) translate(295, -4)" fill="#481384" width="100" height="8"/><rect transform="rotate(0) translate(131.67 214) rotate(90) translate(295, -4)" fill="#4f1f8b" width="95" height="8"/><rect transform="rotate(0) translate(145.53 214) rotate(90) translate(295, -4)" fill="#562b91" width="90" height="8"/><rect transform="rotate(0) translate(256.41 214) rotate(90) translate(295, -4)" fill="#e2e2ef" width="0" height="8"/><rect transform="rotate(0) translate(270.27 214) rotate(90) translate(295, -4)" fill="#e2e2ef" width="0" height="8"/><rect transform="rotate(0) translate(353.43 214) rotate(90) translate(295, -4)" fill="#e2e2ef" width="0" height="8"/><rect transform="rotate(0) translate(367.29 214) rotate(90) translate(295, -4)" fill="#e2e2ef" width="0" height="8"/><rect transform="rotate(0) translate(381.15000000000003 214) rotate(90) translate(295, -4)" fill="#e2e2ef" width="0" height="8"/><rect transform="rotate(0) translate(395.01 214) rotate(90) translate(295, -4)" fill="#e2e2ef" width="0" height="8"/><rect transform="rotate(0) translate(436.59 214) rotate(90) translate(295, -4)" fill="#e2e2ef" width="0" height="8"/><rect transform="rotate(0) translate(478.16999999999996 214) rotate(90) translate(295, -4)" fill="#e2e2ef" width="0" height="8"/><rect transform="rotate(0) translate(492.03 214) rotate(90) translate(295, -4)" fill="#e2e2ef" width="0" height="8"/><rect transform="rotate(0) translate(505.89 214) rotate(90) translate(295, -4)" fill="#e2e2ef" width="0" height="8"/><rect transform="rotate(0) translate(547.47 214) rotate(90) translate(295, -4)" fill="#e2e2ef" width="0" height="8"/><rect transform="rotate(0) translate(561.33 214) rotate(90) translate(295, -4)" fill="#e2e2ef" width="0" height="8"/><rect transform="rotate(0) translate(575.1899999999999 214) rotate(90) translate(295, -4)" fill="#e2e2ef" width="0" height="8"/><rect transform="rotate(0) translate(450.45 214) rotate(90) translate(295, -4)" fill="#e2e2ef" width="0" height="8"/><rect transform="rotate(0) translate(464.31 214) rotate(90) translate(295, -4)" fill="#e2e2ef" width="0" height="8"/><rect transform="rotate(0) translate(519.75 214) rotate(90) translate(295, -4)" fill="#e2e2ef" width="0" height="8"/><rect transform="rotate(0) translate(533.61 214) rotate(90) translate(295, -4)" fill="#e2e2ef" width="0" height="8"/><rect transform="rotate(0) translate(589.05 214) rotate(90) translate(295, -4)" fill="#e2e2ef" width="0" height="8"/><rect transform="rotate(0) translate(602.91 214) rotate(90) translate(295, -4)" fill="#8d89c0" width="45" height="8"/><rect transform="rotate(0) translate(616.77 214) rotate(90) translate(295, -4)" fill="#9793c5" width="40" height="8"/><rect transform="rotate(0) translate(630.63 214) rotate(90) translate(295, -4)" fill="#e2e2ef" width="0" height="8"/><rect transform="rotate(0) translate(644.49 214) rotate(90) translate(295, -4)" fill="#a9a6cf" width="30" height="8"/><rect transform="rotate(0) translate(658.35 214) rotate(90) translate(295, -4)" fill="#c3c4e0" width="15" height="8"/><rect transform="rotate(0) translate(672.21 214) rotate(90) translate(295, -4)" fill="#d8d8ea" width="5" height="8"/><rect transform="rotate(0) translate(686.07 214) rotate(90) translate(295, -4)" fill="#babada" width="20" height="8"/></g><path d="M2.9299999999999997,339 L690.07,339" stroke="#666666" stroke-width="2"/><path d="M2.9299999999999997,449 L690.07,449" stroke="#666666" stroke-width="2"/><path d="M2.9299999999999997,509 L690.07,509" stroke="#666666" stroke-width="2"/></g><g id="leaf-label-container"><text class="leaf" dy="0.3em" dx="0.6em" text-anchor="start" transform="rotate(0) translate(6.93 214) rotate(90)" font-size="16" font-family="Helvetica" fill="#333333"/><text class="leaf" dy="0.3em" dx="0.6em" text-anchor="start" transform="rotate(0) translate(48.510000000000005 214) rotate(90)" font-size="16" font-family="Helvetica" fill="#333333"/><text class="leaf" dy="0.3em" dx="0.6em" text-anchor="start" transform="rotate(0) translate(20.79 214) rotate(90)" font-size="16" font-family="Helvetica" fill="#333333"/><text class="leaf" dy="0.3em" dx="0.6em" text-anchor="start" transform="rotate(0) translate(34.65 214) rotate(90)" font-size="16" font-family="Helvetica" fill="#333333"/><text class="leaf" dy="0.3em" dx="0.6em" text-anchor="start" transform="rotate(0) translate(62.37 214) rotate(90)" font-size="16" font-family="Helvetica" fill="#333333"/><text class="leaf" dy="0.3em" dx="0.6em" text-anchor="start" transform="rotate(0) translate(214.83 214) rotate(90)" font-size="16" font-family="Helvetica" fill="#333333"/><text class="leaf" dy="0.3em" dx="0.6em" text-anchor="start" transform="rotate(0) translate(159.39000000000001 214) rotate(90)" font-size="16" font-family="Helvetica" fill="#333333">Class II</text><text class="leaf" dy="0.3em" dx="0.6em" text-anchor="start" transform="rotate(0) translate(173.25 214) rotate(90)" font-size="16" font-family="Helvetica" fill="#333333">Class II</text><text class="leaf" dy="0.3em" dx="0.6em" text-anchor="start" transform="rotate(0) translate(187.11 214) rotate(90)" font-size="16" font-family="Helvetica" fill="#333333">Class II</text><text class="leaf" dy="0.3em" dx="0.6em" text-anchor="start" transform="rotate(0) translate(200.97 214) rotate(90)" font-size="16" font-family="Helvetica" fill="#333333">Class II</text><text class="leaf" dy="0.3em" dx="0.6em" text-anchor="start" transform="rotate(0) translate(228.69 214) rotate(90)" font-size="16" font-family="Helvetica" fill="#333333"/><text class="leaf" dy="0.3em" dx="0.6em" text-anchor="start" transform="rotate(0) translate(339.57 214) rotate(90)" font-size="16" font-family="Helvetica" fill="#333333"/><text class="leaf" dy="0.3em" dx="0.6em" text-anchor="start" transform="rotate(0) translate(408.87 214) rotate(90)" font-size="16" font-family="Helvetica" fill="#333333"/><text class="leaf" dy="0.3em" dx="0.6em" text-anchor="start" transform="rotate(0) translate(76.23 214) rotate(90)" font-size="16" font-family="Helvetica" fill="#333333">Class II</text><text class="leaf" dy="0.3em" dx="0.6em" text-anchor="start" transform="rotate(0) translate(90.09 214) rotate(90)" font-size="16" font-family="Helvetica" fill="#333333">Class II</text><text class="leaf" dy="0.3em" dx="0.6em" text-anchor="start" transform="rotate(0) translate(242.54999999999998 214) rotate(90)" font-size="16" font-family="Helvetica" fill="#333333"/><text class="leaf" dy="0.3em" dx="0.6em" text-anchor="start" transform="rotate(0) translate(284.13 214) rotate(90)" font-size="16" font-family="Helvetica" fill="#333333">Class I</text><text class="leaf" dy="0.3em" dx="0.6em" text-anchor="start" transform="rotate(0) translate(297.99 214) rotate(90)" font-size="16" font-family="Helvetica" fill="#333333">Class I</text><text class="leaf" dy="0.3em" dx="0.6em" text-anchor="start" transform="rotate(0) translate(311.85 214) rotate(90)" font-size="16" font-family="Helvetica" fill="#333333">Class I</text><text class="leaf" dy="0.3em" dx="0.6em" text-anchor="start" transform="rotate(0) translate(325.71 214) rotate(90)" font-size="16" font-family="Helvetica" fill="#333333">Class I</text><text class="leaf" dy="0.3em" dx="0.6em" text-anchor="start" transform="rotate(0) translate(422.73 214) rotate(90)" font-size="16" font-family="Helvetica" fill="#333333"/><text class="leaf" dy="0.3em" dx="0.6em" text-anchor="start" transform="rotate(0) translate(103.95 214) rotate(90)" font-size="16" font-family="Helvetica" fill="#333333">Class II</text><text class="leaf" dy="0.3em" dx="0.6em" text-anchor="start" transform="rotate(0) translate(117.81 214) rotate(90)" font-size="16" font-family="Helvetica" fill="#333333">Class II</text><text class="leaf" dy="0.3em" dx="0.6em" text-anchor="start" transform="rotate(0) translate(131.67 214) rotate(90)" font-size="16" font-family="Helvetica" fill="#333333">Class II</text><text class="leaf" dy="0.3em" dx="0.6em" text-anchor="start" transform="rotate(0) translate(145.53 214) rotate(90)" font-size="16" font-family="Helvetica" fill="#333333">Class II</text><text class="leaf" dy="0.3em" dx="0.6em" text-anchor="start" transform="rotate(0) translate(256.41 214) rotate(90)" font-size="16" font-family="Helvetica" fill="#333333"/><text class="leaf" dy="0.3em" dx="0.6em" text-anchor="start" transform="rotate(0) translate(270.27 214) rotate(90)" font-size="16" font-family="Helvetica" fill="#333333"/><text class="leaf" dy="0.3em" dx="0.6em" text-anchor="start" transform="rotate(0) translate(353.43 214) rotate(90)" font-size="16" font-family="Helvetica" fill="#333333"/><text class="leaf" dy="0.3em" dx="0.6em" text-anchor="start" transform="rotate(0) translate(367.29 214) rotate(90)" font-size="16" font-family="Helvetica" fill="#333333"/><text class="leaf" dy="0.3em" dx="0.6em" text-anchor="start" transform="rotate(0) translate(381.15000000000003 214) rotate(90)" font-size="16" font-family="Helvetica" fill="#333333"/><text class="leaf" dy="0.3em" dx="0.6em" text-anchor="start" transform="rotate(0) translate(395.01 214) rotate(90)" font-size="16" font-family="Helvetica" fill="#333333"/><text class="leaf" dy="0.3em" dx="0.6em" text-anchor="start" transform="rotate(0) translate(436.59 214) rotate(90)" font-size="16" font-family="Helvetica" fill="#333333"/><text class="leaf" dy="0.3em" dx="0.6em" text-anchor="start" transform="rotate(0) translate(478.16999999999996 214) rotate(90)" font-size="16" font-family="Helvetica" fill="#333333"/><text class="leaf" dy="0.3em" dx="0.6em" text-anchor="start" transform="rotate(0) translate(492.03 214) rotate(90)" font-size="16" font-family="Helvetica" fill="#333333"/><text class="leaf" dy="0.3em" dx="0.6em" text-anchor="start" transform="rotate(0) translate(505.89 214) rotate(90)" font-size="16" font-family="Helvetica" fill="#333333"/><text class="leaf" dy="0.3em" dx="0.6em" text-anchor="start" transform="rotate(0) translate(547.47 214) rotate(90)" font-size="16" font-family="Helvetica" fill="#333333"/><text class="leaf" dy="0.3em" dx="0.6em" text-anchor="start" transform="rotate(0) translate(561.33 214) rotate(90)" font-size="16" font-family="Helvetica" fill="#333333"/><text class="leaf" dy="0.3em" dx="0.6em" text-anchor="start" transform="rotate(0) translate(575.1899999999999 214) rotate(90)" font-size="16" font-family="Helvetica" fill="#333333"/><text class="leaf" dy="0.3em" dx="0.6em" text-anchor="start" transform="rotate(0) translate(450.45 214) rotate(90)" font-size="16" font-family="Helvetica" fill="#333333"/><text class="leaf" dy="0.3em" dx="0.6em" text-anchor="start" transform="rotate(0) translate(464.31 214) rotate(90)" font-size="16" font-family="Helvetica" fill="#333333"/><text class="leaf" dy="0.3em" dx="0.6em" text-anchor="start" transform="rotate(0) translate(519.75 214) rotate(90)" font-size="16" font-family="Helvetica" fill="#333333"/><text class="leaf" dy="0.3em" dx="0.6em" text-anchor="start" transform="rotate(0) translate(533.61 214) rotate(90)" font-size="16" font-family="Helvetica" fill="#333333"/><text class="leaf" dy="0.3em" dx="0.6em" text-anchor="start" transform="rotate(0) translate(589.05 214) rotate(90)" font-size="16" font-family="Helvetica" fill="#333333"/><text class="leaf" dy="0.3em" dx="0.6em" text-anchor="start" transform="rotate(0) translate(602.91 214) rotate(90)" font-size="16" font-family="Helvetica" fill="#333333">Class I</text><text class="leaf" dy="0.3em" dx="0.6em" text-anchor="start" transform="rotate(0) translate(616.77 214) rotate(90)" font-size="16" font-family="Helvetica" fill="#333333">Class I</text><text class="leaf" dy="0.3em" dx="0.6em" text-anchor="start" transform="rotate(0) translate(630.63 214) rotate(90)" font-size="16" font-family="Helvetica" fill="#333333"/><text class="leaf" dy="0.3em" dx="0.6em" text-anchor="start" transform="rotate(0) translate(644.49 214) rotate(90)" font-size="16" font-family="Helvetica" fill="#333333">Class I</text><text class="leaf" dy="0.3em" dx="0.6em" text-anchor="start" transform="rotate(0) translate(658.35 214) rotate(90)" font-size="16" font-family="Helvetica" fill="#333333">Class I</text><text class="leaf" dy="0.3em" dx="0.6em" text-anchor="start" transform="rotate(0) translate(672.21 214) rotate(90)" font-size="16" font-family="Helvetica" fill="#333333">Class I</text><text class="leaf" dy="0.3em" dx="0.6em" text-anchor="start" transform="rotate(0) translate(686.07 214) rotate(90)" font-size="16" font-family="Helvetica" fill="#333333">Class I</text></g><g id="scale-bar-container" transform="rotate(90 -47.06999969482422 314.3000030517578)"><path id="scale-bar" stroke="black" stroke-width="2" d="M -97.0699999332428 304.5 L 2.930000066757202 304.5" transform=""/><text id="scale-bar-text" dominant-baseline="hanging" text-anchor="middle" x="-47.0699999332428" y="309.5" transform="" font-family="Helvetica">1.61</text></g></g></svg>